<?xml version="1.0" encoding="utf-8"?>
<!-- Generator: Adobe Illustrator 23.1.1, SVG Export Plug-In . SVG Version: 6.00 Build 0)  -->
<svg version="1.1" id="Layer_1" xmlns="http://www.w3.org/2000/svg" xmlns:xlink="http://www.w3.org/1999/xlink" x="0px" y="0px"
	 viewBox="0 0 40 40" style="enable-background:new 0 0 40 40;" xml:space="preserve">
<style type="text/css">
	.st0{fill:#FFFFFF;}
</style>
<path d="M20,1c10.5,0,19,8.5,19,19s-8.5,19-19,19S1,30.5,1,20S9.5,1,20,1 M20,0C9,0,0,9,0,20s9,20,20,20s20-9,20-20S31,0,20,0L20,0z
	"/>
<g>
	<g>
		<line class="st0" x1="16.6" y1="29.4" x2="16.6" y2="10.6"/>
		<path d="M16.6,30.1c-0.4,0-0.7-0.3-0.7-0.7V10.6c0-0.4,0.3-0.7,0.7-0.7s0.7,0.3,0.7,0.7v18.8C17.3,29.8,17,30.1,16.6,30.1z"/>
	</g>
	<g>
		<line class="st0" x1="23.4" y1="10.6" x2="23.4" y2="29.4"/>
		<path d="M23.4,30.1c-0.4,0-0.7-0.3-0.7-0.7V10.6c0-0.4,0.3-0.7,0.7-0.7s0.7,0.3,0.7,0.7v18.8C24.1,29.8,23.8,30.1,23.4,30.1z"/>
	</g>
</g>
</svg>
